<svg xmlns="http://www.w3.org/2000/svg" xmlns:xlink="http://www.w3.org/1999/xlink" width="144" zoomAndPan="magnify" viewBox="0 0 108 41.25" height="55" preserveAspectRatio="xMidYMid meet" version="1.0"><defs><g/></defs><g fill="#ffffff" fill-opacity="1"><g transform="translate(6.929822, 28.631309)"><g><path d="M 5.265625 -2.953125 L 13.078125 -2.953125 L 13.078125 0 L 1.59375 0 L 1.59375 -17.84375 L 5.265625 -17.84375 Z M 5.265625 -2.953125 "/></g></g><g transform="translate(20.524821, 28.631309)"><g><path d="M 15.109375 -17.84375 L 15.109375 -6.09375 C 15.109375 -4.132812 14.492188 -2.585938 13.265625 -1.453125 C 12.046875 -0.316406 10.378906 0.25 8.265625 0.25 C 6.179688 0.25 4.523438 -0.300781 3.296875 -1.40625 C 2.066406 -2.507812 1.441406 -4.023438 1.421875 -5.953125 L 1.421875 -17.84375 L 5.09375 -17.84375 L 5.09375 -6.0625 C 5.09375 -4.894531 5.375 -4.039062 5.9375 -3.5 C 6.5 -2.96875 7.273438 -2.703125 8.265625 -2.703125 C 10.328125 -2.703125 11.378906 -3.789062 11.421875 -5.96875 L 11.421875 -17.84375 Z M 15.109375 -17.84375 "/></g></g><g transform="translate(37.04967, 28.631309)"><g><path d="M 7.984375 -11.703125 L 11.328125 -17.84375 L 15.5625 -17.84375 L 10.359375 -9 L 15.6875 0 L 11.421875 0 L 7.984375 -6.25 L 4.546875 0 L 0.265625 0 L 5.609375 -9 L 0.40625 -17.84375 L 4.640625 -17.84375 Z M 7.984375 -11.703125 "/></g></g><g transform="translate(52.998357, 28.631309)"><g><path d="M 15.109375 -17.84375 L 15.109375 -6.09375 C 15.109375 -4.132812 14.492188 -2.585938 13.265625 -1.453125 C 12.046875 -0.316406 10.378906 0.25 8.265625 0.25 C 6.179688 0.25 4.523438 -0.300781 3.296875 -1.40625 C 2.066406 -2.507812 1.441406 -4.023438 1.421875 -5.953125 L 1.421875 -17.84375 L 5.09375 -17.84375 L 5.09375 -6.0625 C 5.09375 -4.894531 5.375 -4.039062 5.9375 -3.5 C 6.5 -2.96875 7.273438 -2.703125 8.265625 -2.703125 C 10.328125 -2.703125 11.378906 -3.789062 11.421875 -5.96875 L 11.421875 -17.84375 Z M 15.109375 -17.84375 "/></g></g><g transform="translate(69.523207, 28.631309)"><g><path d="M 8.203125 -6.53125 L 5.265625 -6.53125 L 5.265625 0 L 1.59375 0 L 1.59375 -17.84375 L 8.234375 -17.84375 C 10.335938 -17.84375 11.960938 -17.375 13.109375 -16.4375 C 14.253906 -15.5 14.828125 -14.171875 14.828125 -12.453125 C 14.828125 -11.234375 14.5625 -10.21875 14.03125 -9.40625 C 13.5 -8.59375 12.703125 -7.945312 11.640625 -7.46875 L 15.5 -0.171875 L 15.5 0 L 11.546875 0 Z M 5.265625 -9.515625 L 8.234375 -9.515625 C 9.160156 -9.515625 9.875 -9.75 10.375 -10.21875 C 10.882812 -10.6875 11.140625 -11.332031 11.140625 -12.15625 C 11.140625 -13 10.898438 -13.660156 10.421875 -14.140625 C 9.941406 -14.628906 9.210938 -14.875 8.234375 -14.875 L 5.265625 -14.875 Z M 5.265625 -9.515625 "/></g></g><g transform="translate(85.545446, 28.631309)"><g><path d="M 7.75 -9.8125 L 11.46875 -17.84375 L 15.484375 -17.84375 L 9.625 -6.46875 L 9.625 0 L 5.890625 0 L 5.890625 -6.46875 L 0.03125 -17.84375 L 4.0625 -17.84375 Z M 7.75 -9.8125 "/></g></g></g></svg>